<?xml version="1.0" encoding="UTF-8"?><svg xmlns="http://www.w3.org/2000/svg" xmlns:xlink="http://www.w3.org/1999/xlink" viewBox="0 0 131.22 101.75"><defs><style>.cls-1{fill:url(#Degradado_sin_nombre_76);}.cls-1,.cls-2,.cls-3,.cls-4,.cls-5,.cls-6,.cls-7,.cls-8,.cls-9{stroke-width:0px;}.cls-2{fill:url(#Degradado_sin_nombre_41);}.cls-2,.cls-5{mix-blend-mode:multiply;opacity:.4;}.cls-3{fill:url(#Degradado_sin_nombre_165);}.cls-3,.cls-6,.cls-7{mix-blend-mode:soft-light;}.cls-4{fill:url(#Degradado_sin_nombre_76-2);}.cls-5{fill:url(#Degradado_sin_nombre_41-2);}.cls-6{fill:url(#Degradado_sin_nombre_165-3);}.cls-7{fill:url(#Degradado_sin_nombre_165-2);}.cls-10{isolation:isolate;}.cls-8{fill:#a33cbc;}.cls-9{fill:#ad58bf;}</style><linearGradient id="Degradado_sin_nombre_165" x1="32.56" y1=".72" x2="50.59" y2="26.14" gradientUnits="userSpaceOnUse"><stop offset="0" stop-color="#ffe496" stop-opacity="0"/><stop offset=".94" stop-color="#efec53"/></linearGradient><linearGradient id="Degradado_sin_nombre_41" x1="71.95" y1="10.44" x2="57.47" y2="24.33" gradientUnits="userSpaceOnUse"><stop offset="0" stop-color="#5e5ba2" stop-opacity="0"/><stop offset="1" stop-color="#372ad9"/></linearGradient><linearGradient id="Degradado_sin_nombre_41-2" x1="57.35" y1="56.16" x2="79.43" y2="56.16" xlink:href="#Degradado_sin_nombre_41"/><linearGradient id="Degradado_sin_nombre_76" x1="105.66" y1="88.52" x2="105.66" y2="25.26" gradientUnits="userSpaceOnUse"><stop offset="0" stop-color="#dc3fad"/><stop offset="1" stop-color="#4610b2"/></linearGradient><linearGradient id="Degradado_sin_nombre_76-2" x1="33.5" y1="98.54" x2="22.39" y2="37.73" xlink:href="#Degradado_sin_nombre_76"/><linearGradient id="Degradado_sin_nombre_165-2" x1="5.43" y1="100.49" x2="10.88" y2="77.08" xlink:href="#Degradado_sin_nombre_165"/><linearGradient id="Degradado_sin_nombre_165-3" x1="69.07" y1="61.46" x2="81.16" y2="9.47" xlink:href="#Degradado_sin_nombre_165"/></defs><g class="cls-10"><g id="Calque_2"><g id="OBJECTS"><path class="cls-8" d="m81.25,40.63v51.12c0,5.52-4.48,10-10,10-.99,0-1.96-.15-2.86-.42-4.13-1.23-7.14-5.05-7.14-9.58v-51.12c0-4.5-1.44-8.66-3.9-12.05-2.29-3.17-5.46-5.67-9.15-7.13-2.34-.94-4.9-1.45-7.58-1.45-.36,0-.72.01-1.07.03-10.87.56-19.55,9.58-19.55,20.6v51.12c0,4.26-2.67,7.91-6.43,9.34-1.11.43-2.31.66-3.57.66-5.53,0-10-4.48-10-10v-51.12c0-10.94,4.34-20.87,11.38-28.18C18.78,4.78,29.15,0,40.62,0c7.94,0,15.35,2.29,21.62,6.24,2.2,1.39,4.26,2.99,6.15,4.76,1.55,1.46,3,3.04,4.31,4.72,1.33,1.71,2.53,3.53,3.56,5.44,1.3,2.34,2.36,4.83,3.17,7.42,1.18,3.81,1.82,7.85,1.82,12.05Z"/><path class="cls-3" d="m72.7,15.72l-10.13,2.07S45.85-4.93,11.38,12.45C18.78,4.78,29.15,0,40.62,0c10.73,0,20.5,4.18,27.77,11,1.55,1.46,3,3.04,4.31,4.72Z"/><path class="cls-2" d="m76.26,21.16l-12.71,7.42h-6.2c-2.29-3.17-5.46-5.67-9.15-7.13,2.23-4.63,6.4-10.64,14.04-15.21,2.2,1.39,4.26,2.99,6.15,4.76,1.55,1.46,3,3.04,4.31,4.72,1.33,1.71,2.53,3.53,3.56,5.44Z"/><path class="cls-5" d="m79.43,28.58c-2.46,3.39-3.9,7.55-3.9,12.05v51.12c0,4.53-3.01,8.36-7.14,9.58-4.13-1.23-7.14-5.05-7.14-9.58v-51.12c0-4.5-1.44-8.66-3.9-12.05,2.12-6.8,5.97-12.83,11.04-17.58,5.07,4.75,8.92,10.78,11.04,17.58Z"/><path class="cls-9" d="m131.22,40.63v51.12c0,5.52-4.48,10-10,10-.53,0-1.05-.04-1.55-.12-4.79-.75-8.45-4.89-8.45-9.88v-51.12c0-11.02-8.69-20.05-19.57-20.6-.35-.02-.71-.03-1.06-.03-11.37,0-20.63,9.25-20.63,20.63v51.12c0,5.52-4.47,10-10,10s-10-4.48-10-10v-51.12C49.96,18.22,68.19,0,90.59,0c6.05,0,11.79,1.33,16.95,3.71,13.96,6.43,23.68,20.56,23.68,36.92Z"/><path class="cls-1" d="m119.67,49.08v52.55c-4.79-.75-8.45-4.89-8.45-9.88v-51.12c0-11.02-8.69-20.05-19.57-20.6,15.57.55,28.02,13.34,28.02,29.05Z"/><path class="cls-4" d="m39.55,20.03c-10.87.56-19.55,9.58-19.55,20.6v51.12c0,4.26-2.67,7.91-6.43,9.34v-54.04c0-14.58,11.53-26.47,25.98-27.02Z"/><path class="cls-7" d="m20,87.3v4.45c0,4.26-2.67,7.91-6.43,9.34-1.11.43-2.31.66-3.57.66-5.53,0-10-4.48-10-10v-22.94c3.32,8.65,9.32,16.24,20,18.49Z"/><path class="cls-6" d="m107.54,3.71C57.7-1.61,50.74,40.76,49.96,58.05v-17.42C49.96,18.22,68.19,0,90.59,0c6.05,0,11.79,1.33,16.95,3.71Z"/></g></g></g></svg>